<svg width="512" height="512" viewBox="0 0 135.467 135.467" xmlns:xlink="http://www.w3.org/1999/xlink" xmlns="http://www.w3.org/2000/svg"><defs><linearGradient id="prefix__a"><stop offset="0" stop-color="#e3fc06"/><stop offset="1" stop-color="#28ff1c"/></linearGradient><linearGradient xlink:href="#prefix__a" id="prefix__b" x1="-31.851" y1="191.585" x2="-28.833" y2="191.585" gradientUnits="userSpaceOnUse" gradientTransform="rotate(135 54.604 203.893)"/></defs><path fill="none" paint-order="markers fill stroke" d="M.002-.003H135.47v135.468H.002z"/><path d="M125.445 152.469l-1.764 2.3-2.65-2.445 2.394-1.875z" fill="url(#prefix__b)" paint-order="markers fill stroke" transform="translate(-1033.042 -1365.778) scale(9.26592)"/><path d="M4.403 87.622L20.749 66.3l24.545 22.661-22.175 17.376z" fill="#4d4d4d" paint-order="markers fill stroke"/><path d="M78.296 28.893c2.632 1.94 6.401 5.244 8.372 7.344l3.584 3.815 5.789-5.415c6.954-6.505 13.679-8.738 20.655-6.86 9.578 2.582 14.897 9.399 14.897 19.099 0 6.858-1.248 9.48-7.716 16.2l-4.974 5.166 5.151 5.588c5.981 6.489 7.539 9.97 7.539 16.841 0 10.586-9.027 19.434-19.816 19.425-5.89-.005-10.654-2.409-16.644-8.399-2.133-2.134-4.363-3.876-4.958-3.876-.594 0-2.986 1.983-5.314 4.403-5.57 5.794-9.771 7.878-15.886 7.878-6.317 0-12.768-3.29-18.93-9.658l-4.793-4.955-5.645 4.986c-6.777 5.987-9.573 7.17-16.939 7.17-11.126 0-18.792-8.124-18.792-19.916 0-6.949 2.998-12.753 9.634-18.64l2.624-2.332-4.936-5.355c-5.868-6.366-7.324-9.774-7.324-17.143 0-10.883 7.898-18.894 18.626-18.894 7.644 0 10.994 1.41 17.411 7.324l5.355 4.935L47.597 35c1.282-1.445 4.486-4.202 7.12-6.13 3.94-2.881 6.029-3.505 11.789-3.505 5.777 0 7.837.614 11.79 3.527zM56.04 37.805l-5.5 5.07 4.515 5.06c14.345 16.085 45.363 48.541 49.14 51.422 2.436 1.858 5.703 3.377 7.26 3.377 7.357 0 12.77-5.817 12.77-13.723 0-3.596-2.75-6.771-26.128-30.148-25.815-25.815-26.19-26.128-31.343-26.128-4.404 0-6.07.787-10.714 5.07zm-41.206-1.48c-2.843 2.843-3.588 4.677-3.588 8.817 0 5.165.302 5.537 25.482 30.728 16.358 16.368 26.691 25.791 28.86 26.315 4.976 1.2 8.276-.084 14.3-5.548l5.396-4.9-13.379-14.431c-7.358-7.937-20.031-21.213-28.162-29.501-14.356-14.634-14.935-15.07-20.05-15.07-4.186 0-6.005.74-8.857 3.588zm86.581 3.992l-5.562 5.126 8.884 8.944 8.884 8.943 3.174-3.325c8.644-9.047 9.773-15.292 3.837-21.226-2.8-2.8-4.697-3.587-8.623-3.587-4.203 0-5.954.848-10.596 5.126zm-90.17 47.892c0 6.83 5.213 12.068 12.012 12.068 3.92 0 5.929-.964 10.625-5.098l5.791-5.098-8.995-9.098-8.995-9.098-5.22 5.718c-4.308 4.72-5.219 6.572-5.219 10.606z" fill="#4d4d4d"/></svg>