<svg width="503.31" height="503.31" viewBox="0 0 133.168 133.167" xmlns="http://www.w3.org/2000/svg"><path fill="none" paint-order="markers fill stroke" d="M0 0h133.168v133.167H0z"/><g transform="matrix(9.26784 0 0 9.26784 -1252.987 -1331.677)" paint-order="markers fill stroke"><rect width="11.73" height="11.59" x="136.517" y="145.077" ry="2.324" fill="#666" stroke="#666" stroke-width="2.117"/><g stroke-width="1.627" stroke="#5df" fill="none"><path d="M126.137 146.41v2.624a2.403 2.403 0 002.409 2.408h2.623v-2.624a2.403 2.403 0 00-2.407-2.408zm5.032 5.032v2.624a2.403 2.403 0 002.408 2.409h2.625v-2.624a2.403 2.403 0 00-2.408-2.409z" transform="matrix(.93188 0 0 .9253 20.133 10.728)"/><path d="M126.137 146.41v2.624a2.403 2.403 0 002.409 2.408h2.623v-2.624a2.403 2.403 0 00-2.407-2.408zm5.032 5.032v2.624a2.403 2.403 0 002.408 2.409h2.625v-2.624a2.403 2.403 0 00-2.408-2.409z" transform="matrix(.93188 0 0 .9253 20.133 10.728)"/></g></g></svg>